<svg xmlns="http://www.w3.org/2000/svg" xmlns:xlink="http://www.w3.org/1999/xlink" id="Layer_1" width="46.44091" height="50" viewBox="0 0 46.440912 50"><style id="style3">.st0{clip-path:url(#SVGID_2_);}</style><g id="g5" fill="#fff"><g id="g7" transform="scale(.17277)"><defs id="defs9"><path id="SVGID_1_" d="M0 0h268.79999v290H0z"/></defs><clipPath id="SVGID_2_"><use xlink:href="#SVGID_1_" id="use13" width="100%" height="100%" overflow="visible"/></clipPath><path class="st0" d="M248.8 35h-22V20c0-11-9-20-20-20h-.8c-11 0-20 9-20 20v15H82.8V20c0-11-9-20-20-20H62C51 0 42 9 42 20v15H20C9 35 0 44 0 55v214.4c0 11 9 20 20 20h228.8c11 0 20-9 20-20V55c0-11-9-20-20-20zm-13.6 222.8H33.6V95.4h201.6v162.4zm0 0" id="path15" clip-path="url(#SVGID_2_)"/></g><path d="M10.53897 29.180853h6.012396c.310986 0 .552864-.241878.552864-.552864v-6.012396c0-.310986-.241878-.552864-.552864-.552864H10.53897c-.310986 0-.552864.241878-.552864.552864v6.012396c0 .310986.241878.552864.552864.552864zm0 0" id="path17"/><path d="M20.21409 29.180853h6.012396c.310986 0 .552864-.241878.552864-.552864v-6.012396c0-.310986-.241878-.552864-.552864-.552864H20.21409c-.310986 0-.552864.241878-.552864.552864v6.012396c0 .310986.241878.552864.552864.552864zm0 0" id="path19"/><path d="M29.88921 29.180853h6.012396c.310986 0 .552864-.241878.552864-.552864v-6.012396c0-.310986-.241878-.552864-.552864-.552864H29.88921c-.310986 0-.552864.241878-.552864.552864v6.012396c0 .310986.241878.552864.552864.552864zm0 0" id="path21"/><path d="M10.53897 38.855973h6.012396c.310986 0 .552864-.241878.552864-.552864v-6.012396c0-.310986-.241878-.552864-.552864-.552864H10.53897c-.310986 0-.552864.241878-.552864.552864v6.012396c0 .310986.241878.552864.552864.552864zm0 0" id="path23"/><path d="M20.21409 38.855973h6.012396c.310986 0 .552864-.241878.552864-.552864v-6.012396c0-.310986-.241878-.552864-.552864-.552864H20.21409c-.310986 0-.552864.241878-.552864.552864v6.012396c0 .310986.241878.552864.552864.552864zm0 0" id="path25"/><path d="M29.88921 38.855973h6.012396c.310986 0 .552864-.241878.552864-.552864v-6.012396c0-.310986-.241878-.552864-.552864-.552864H29.88921c-.310986 0-.552864.241878-.552864.552864v6.012396c0 .310986.241878.552864.552864.552864zm0 0" id="path27"/></g></svg>