<?xml version="1.0" encoding="UTF-8" standalone="no"?>
<!-- Generator: Adobe Illustrator 19.2.1, SVG Export Plug-In . SVG Version: 6.00 Build 0)  -->

<svg
   xmlns:dc="http://purl.org/dc/elements/1.1/"
   xmlns:cc="http://creativecommons.org/ns#"
   xmlns:rdf="http://www.w3.org/1999/02/22-rdf-syntax-ns#"
   xmlns:svg="http://www.w3.org/2000/svg"
   xmlns="http://www.w3.org/2000/svg"
   xmlns:sodipodi="http://sodipodi.sourceforge.net/DTD/sodipodi-0.dtd"
   xmlns:inkscape="http://www.inkscape.org/namespaces/inkscape"
   version="1.2"
   id="Layer_1"
   x="0px"
   y="0px"
   viewBox="0 0 50.997726 50"
   xml:space="preserve"
   inkscape:version="0.91 r13725"
   sodipodi:docname="growth.svg"
   width="50.997726"
   height="50"><metadata
     id="metadata19"><rdf:RDF><cc:Work
         rdf:about=""><dc:format>image/svg+xml</dc:format><dc:type
           rdf:resource="http://purl.org/dc/dcmitype/StillImage" /><dc:title></dc:title></cc:Work></rdf:RDF></metadata><defs
     id="defs17" /><sodipodi:namedview
     pagecolor="#ffffff"
     bordercolor="#666666"
     borderopacity="1"
     objecttolerance="10"
     gridtolerance="10"
     guidetolerance="10"
     inkscape:pageopacity="0"
     inkscape:pageshadow="2"
     inkscape:window-width="1920"
     inkscape:window-height="1017"
     id="namedview15"
     showgrid="false"
     fit-margin-top="0"
     fit-margin-left="0"
     fit-margin-right="0"
     fit-margin-bottom="0"
     inkscape:zoom="1.2896175"
     inkscape:cx="92.9"
     inkscape:cy="90.7"
     inkscape:window-x="-8"
     inkscape:window-y="-8"
     inkscape:window-maximized="1"
     inkscape:current-layer="Layer_1" /><g
     id="g4147"
     transform="matrix(0.27442371,0,0,0.27442371,-0.02744237,0)"
     style="fill:#ffffff"><g
       id="g3"
       style="fill:#ffffff"><path
         id="path5"
         d="m 79.2,98.3 c 0,-5.8 -4.7,-10.5 -10.5,-10.5 l -11,0 c -5.8,0 -10.5,4.7 -10.5,10.5 l 0,73.3 c 0,5.8 4.7,10.5 10.5,10.5 l 10.9,0 c 5.8,0 10.5,-4.7 10.5,-10.5 l 0,-73.3 z m 0,0"
         inkscape:connector-curvature="0"
         style="fill:#ffffff" /><path
         id="path7"
         d="m 32,123.9 c 0,-6.3 -5.1,-11.3 -11.3,-11.3 l -9.3,0 c -6.3,0 -11.3,5.1 -11.3,11.3 l 0,46.9 c 0,6.3 5.1,11.3 11.3,11.3 l 9.3,0 C 27,182.1 32,177 32,170.8 l 0,-46.9 z m 0,0"
         inkscape:connector-curvature="0"
         style="fill:#ffffff" /></g><g
       id="g9"
       style="fill:#ffffff"><path
         id="path11"
         d="m 104.1,182.2 10.9,0 c 5.8,0 10.5,-4.7 10.5,-10.5 l 0,-101.4 c 0,-5.8 -4.7,-10.5 -10.5,-10.5 l -10.9,0 c -5.8,0 -10.5,4.7 -10.5,10.5 l 0,101.3 c 0,5.9 4.7,10.6 10.5,10.6 z"
         inkscape:connector-curvature="0"
         style="fill:#ffffff" /><path
         id="path13"
         d="m 149.9,3.6 -20.5,26.3 c -1.8,2.3 -2.2,4.7 -1.2,6.8 1.1,2.3 3.7,3.6 7.1,3.6 l 5.5,0 0,131.7 c 0,5.8 4.7,10.2 10.5,10.2 l 11,0 c 5.8,0 10.4,-4.4 10.4,-10.2 l 0,-131.8 5.6,0.1 c 3.3,0 6,-1.3 7.1,-3.6 1,-2.1 0.6,-4.5 -1.2,-6.8 L 163.8,3.6 C 162,1.3 159.5,0 156.8,0 c -2.7,0 -5.1,1.3 -6.9,3.6 z"
         inkscape:connector-curvature="0"
         style="fill:#ffffff" /></g></g></svg>