<svg xmlns="http://www.w3.org/2000/svg" width="54.929302" height="50" viewBox="0 0 54.9293 50"><path d="M12.27415563 6.14689714c0 3.39748627-2.74941086 6.14689713-6.14689714 6.14689713C2.74941085 12.27415563 0 9.52474477 0 6.14689714 0 2.74941086 2.74941086 0 6.14689714 0c3.37784763 0 6.1272585 2.74941086 6.1272585 6.14689714zm0 0M12.27415563 25.00000018c0 3.39748627-2.74941086 6.14689713-6.14689714 6.14689713C2.74941085 31.12725868 0 28.3778478 0 25.0000002c0-3.39748628 2.74941086-6.14689714 6.14689714-6.14689714 3.37784763 0 6.1272585 2.74941086 6.1272585 6.14689714zm0 0M12.27415563 43.85310322c0 3.39748627-2.74941086 6.14689713-6.14689714 6.14689713C2.74941085 49.9803617 0 47.23095085 0 43.85310322c0-3.39748628 2.74941086-6.14689714 6.14689714-6.14689714 3.37784763 0 6.1272585 2.74941086 6.1272585 6.14689714zm0 0M54.1437553.7659073H17.85153193c-.43205028 0-.78554596.3534957-.78554596.78554597V10.742341c0 .43205028.35349568.78554596.78554596.78554596H54.1437553c.43205027 0 .78554595-.35349568.78554595-.78554596V1.55145327c0-.43205028-.35349568-.78554596-.78554596-.78554596zm0 0M54.1437553 19.61901035H17.85153193c-.43205028 0-.78554596.35349568-.78554596.78554596v9.19088774c0 .43205028.35349568.78554596.78554596.78554596H54.1437553c.43205027 0 .78554595-.35349568.78554595-.78554596V20.4045563c0-.43205027-.35349568-.78554595-.78554596-.78554595zm0 0M54.1437553 38.4721134H17.85153193c-.43205028 0-.78554596.35349567-.78554596.78554595v9.19088773c0 .43205028.35349568.78554596.78554596.78554596H54.1437553c.43205027 0 .78554595-.35349568.78554595-.78554596v-9.19088773c0-.43205028-.35349568-.78554596-.78554596-.78554596zm0 0"/></svg>