<?xml version="1.0" encoding="UTF-8" standalone="no"?>
<!-- Generator: Adobe Illustrator 19.2.1, SVG Export Plug-In . SVG Version: 6.00 Build 0)  -->

<svg
   xmlns="http://www.w3.org/2000/svg"
   id="Layer_1"
   viewBox="0 0 42.499999 50" />
   <style>
		path {
			fill: #fff;
		}
   </style>
   <path
     d="m 21.25,50 c 2.812501,0 5,-2.1875 5,-5 l -10,0 c 0,2.8125 2.1875,5 5,5 l 0,0 z M 37.5,35 37.5,21.25 C 37.5,13.4375 32.1875,7.1875 25,5.625 L 25,3.749999 C 25,1.875 23.125,0 21.25,0 19.375,0 17.5,1.875 17.5,3.749999 L 17.5,5.625 C 10.3125,7.5 5,13.75 5,21.25 L 5,35 l -5,5 0,2.5 42.5,0 0,-2.5 -5,-5 z m 0,0">
</svg>